# xmcd CD database file
#
# Track frame offsets:
#	150
#	19658
#	39933
#	59208
#
# Disc length: 1004 seconds
#
# Revision: 0
# Processed by: cddbd v1.5PL3 Copyright (c) Steve Scherf et al.
# Submitted via: CDex 1.40Release
#
DISCID=2e03ea04
DTITLE=Dragon Ash - Lily's e.p.
DYEAR=2000
DGENRE=Hip-Hop
TTITLE0=Amploud
TTITLE1=静かな日々の階段を
TTITLE2=静かな日々の階段を (e.p. ver.)
TTITLE3=Amploud (Modern Beatnik mix)
EXTD=YEAR: 2000 ID3G: 7
EXTT0=
EXTT1=
EXTT2=
EXTT3=
PLAYORDER=
